# xmcd CD database file
#
# Track frame offsets:
#	150
#	15581
#	37517
#	56296
#	71480
#	88414
#	99435
#	121510
#	133765
#	148724
#	166030
#	182533
#
# Disc length: 2680 seconds
#
# Revision: 1
# Processed by: cddbd v1.5.2PL0 Copyright (c) Steve Scherf et al.
# Submitted via: CDex 1.51
#
DISCID=8d0a760c
DTITLE=MILIONÁRIO E JOSÉ RICO - 1983-LEMBRANÇA - VOL. 14
DYEAR=1984
DGENRE=Sertanejo
TTITLE0=DUAS CAMISAS (AGORA VOCÊ VAI DECIDIR)
TTITLE1=LEMBRANÇA
TTITLE2=ENTRE LÁGRIMAS
TTITLE3=A POMBINHA BRANCA VOLTOU
TTITLE4=ESQUINA DO ADEUS
TTITLE5=MINHA ÚLTIMA CANÇÃO
TTITLE6=MAIS UMA NOITE VOU DORMIR SEM O MEU BEM
TTITLE7=VINTE ANOS
TTITLE8=CABECINHA NO OMBRO
TTITLE9=ORGULHOSA E BONITA
TTITLE10=DESVENTURA
TTITLE11=FLOR DA LAMA
EXTD=YEAR: 1984
EXTT0=
EXTT1=
EXTT2=
EXTT3=
EXTT4=
EXTT5=
EXTT6=
EXTT7=
EXTT8=
EXTT9=
EXTT10=
EXTT11=
PLAYORDER=
